<svg t="1694251908731" class="icon" viewBox="0 0 1024 1024" version="1.1" xmlns="http://www.w3.org/2000/svg" p-id="1336" width="200" height="200"><path d="M669.013333 596.21181l194.389334 226.791619A77.433905 77.433905 0 0 1 804.59581 950.857143H212.016762a77.433905 77.433905 0 0 1-58.782476-127.853714l194.413714-226.791619c22.918095 13.897143 47.737905 24.941714 74.044952 32.597333l-209.67619 244.614095h592.579048l-209.676191-244.614095a308.102095 308.102095 0 0 0 74.069333-32.597333zM508.294095 73.142857c142.57981 0 258.145524 115.565714 258.145524 258.145524 0 142.57981-115.565714 258.145524-258.145524 258.145524-142.57981 0-258.145524-115.565714-258.145524-258.145524C250.148571 188.732952 365.714286 73.142857 508.318476 73.142857z m0 77.433905a180.711619 180.711619 0 1 0 0 361.423238 180.711619 180.711619 0 0 0 0-361.423238z" p-id="1337"></path></svg>