<svg t="1694421362778" class="icon" viewBox="0 0 1024 1024" version="1.1" xmlns="http://www.w3.org/2000/svg" p-id="1873" width="200" height="200"><path d="M512 97.52381c228.912762 0 414.47619 185.563429 414.47619 414.47619s-185.563429 414.47619-414.47619 414.47619S97.52381 740.912762 97.52381 512 283.087238 97.52381 512 97.52381z m0 73.142857C323.486476 170.666667 170.666667 323.486476 170.666667 512s152.81981 341.333333 341.333333 341.333333 341.333333-152.81981 341.333333-341.333333S700.513524 170.666667 512 170.666667z m185.002667 377.734095l68.851809 24.722286c-92.647619 257.80419-440.100571 257.80419-508.659809-3.072l70.753523-18.578286c49.688381 189.147429 300.007619 189.147429 369.054477-3.072zM414.47619 341.333333a48.761905 48.761905 0 0 1 48.761905 48.761905v73.142857a48.761905 48.761905 0 1 1-97.523809 0v-73.142857a48.761905 48.761905 0 0 1 48.761904-48.761905z m195.04762 0a48.761905 48.761905 0 0 1 48.761904 48.761905v73.142857a48.761905 48.761905 0 1 1-97.523809 0v-73.142857a48.761905 48.761905 0 0 1 48.761905-48.761905z" p-id="1874"></path></svg>