<svg t="1694401122907" class="icon" viewBox="0 0 1024 1024" version="1.1" xmlns="http://www.w3.org/2000/svg" p-id="1967" width="200" height="200"><path d="M512 97.52381l7.875048 0.073142h0.999619l7.070476 0.24381c38.521905 1.462857 75.727238 8.167619 110.86019 19.431619l8.460191 2.82819c2.80381 0.975238 5.607619 1.950476 8.362666 2.998858l-4.705523-1.706667c2.925714 1.024 5.851429 2.096762 8.752762 3.193905l-4.047239-1.487238a411.550476 411.550476 0 0 1 23.04 9.289142l-1.219047-0.512c2.876952 1.243429 5.729524 2.511238 8.557714 3.82781l-7.314286-3.31581c3.169524 1.414095 6.339048 2.852571 9.45981 4.315429l-2.145524-0.975238c3.413333 1.560381 6.826667 3.193905 10.191238 4.87619l-8.045714-3.900952a412.867048 412.867048 0 0 1 71.43619 42.886095l-5.558857-4.096c2.31619 1.657905 4.632381 3.364571 6.89981 5.071238l-1.316572-0.975238c2.462476 1.828571 4.924952 3.705905 7.363048 5.607619l-6.046476-4.632381c2.730667 2.072381 5.461333 4.144762 8.143238 6.290286l-2.096762-1.657905c3.169524 2.486857 6.290286 4.998095 9.386667 7.558096l-7.289905-5.900191a416.52419 416.52419 0 0 1 24.795428 21.260191l-1.511619-1.389715c2.243048 2.072381 4.461714 4.144762 6.680381 6.265905l-5.168762-4.87619a417.03619 417.03619 0 0 1 22.406096 22.430476l5.997714 6.631619 0.341333 0.390095c16.164571 18.285714 30.72 37.985524 43.495619 58.928762l4.998096 8.411428a413.525333 413.525333 0 0 1 23.259428 46.860191l-2.779428-6.460952a412.062476 412.062476 0 0 1 11.507809 29.110857l-1.267809-3.559619c1.048381 2.876952 2.048 5.778286 3.023238 8.679619l1.438476 4.291047 2.876952 9.264762a411.550476 411.550476 0 0 1 15.164953 76.409905l-0.365715-3.437714c0.365714 3.462095 0.731429 6.92419 0.999619 10.410666l-0.633904-6.972952a416.694857 416.694857 0 0 1 0.633904 78.019048l0.24381-2.901334c-0.219429 2.779429-0.463238 5.558857-0.731429 8.313905l0.487619-5.412571a416.256 416.256 0 0 1-8.118857 53.735619 411.306667 411.306667 0 0 1-22.381714 70.753523l1.170286-2.852571a411.940571 411.940571 0 0 1-24.137143 49.249524l0.560762-0.975238a414.183619 414.183619 0 0 1-49.444572 68.998095l-0.316952 0.365714-4.583619 5.071238-7.070476 7.558096a417.084952 417.084952 0 0 1-16.140191 15.847619l6.436572-6.095238a417.060571 417.060571 0 0 1-24.478477 21.967238l1.365334-1.121524c-2.998857 2.486857-5.997714 4.949333-9.045334 7.363047l7.68-6.241523a416.475429 416.475429 0 0 1-86.308571 55.198476l1.950476-0.926476a412.452571 412.452571 0 0 1-21.333333 9.557333l7.850667-3.364571c-2.82819 1.26781-5.680762 2.462476-8.533334 3.657142l0.682667-0.292571c-3.608381 1.511619-7.265524 2.974476-10.971429 4.388571l10.288762-4.096c-3.779048 1.560381-7.606857 3.072-11.459047 4.510477l1.194666-0.438858c-3.413333 1.29219-6.826667 2.56-10.264381 3.754667l9.094096-3.315809c-3.413333 1.29219-6.875429 2.56-10.337524 3.754666l1.219047-0.438857a414.232381 414.232381 0 0 1-146.432 23.28381l-7.046095-0.195048a413.45219 413.45219 0 0 1-110.86019-19.456l-8.533334-2.852571a411.306667 411.306667 0 0 1-8.289523-2.974477l4.705523 1.706667c-2.925714-1.024-5.851429-2.096762-8.752762-3.193905l4.047239 1.487238a411.550476 411.550476 0 0 1-21.845334-8.777142l9.167238 3.876571a412.062476 412.062476 0 0 1-10.361904-4.388571l1.219047 0.512a412.233143 412.233143 0 0 1-8.557714-3.82781l7.314286 3.31581c-3.169524-1.414095-6.339048-2.852571-9.45981-4.315429l2.145524 0.975238c-3.413333-1.560381-6.826667-3.218286-10.24-4.87619l8.094476 3.900952a412.867048 412.867048 0 0 1-71.43619-42.886095l5.266285 3.900952c-2.340571-1.706667-4.681143-3.413333-6.997333-5.168762l1.706667 1.26781a416.182857 416.182857 0 0 1-8.43581-6.460953l6.729143 5.193143a416.256 416.256 0 0 1-7.801905-6.046476l1.072762 0.853333c-2.82819-2.218667-5.607619-4.486095-8.387048-6.777904l7.314286 5.924571a416.548571 416.548571 0 0 1-24.917333-21.382095l1.682286 1.560381c-2.243048-2.072381-4.461714-4.144762-6.680381-6.265905l4.998095 4.705524a417.060571 417.060571 0 0 1-22.235429-22.25981l-5.997714-6.631619-0.341333-0.390095a415.890286 415.890286 0 0 1-43.934477-59.63581l-4.973714-8.387047a413.915429 413.915429 0 0 1-22.942476-46.421333l2.876952 6.704761a412.038095 412.038095 0 0 1-11.580952-29.330285l1.29219 3.608381a411.282286 411.282286 0 0 1-22.601142-100.010667l0.487619 4.486095c-0.390095-3.291429-0.707048-6.582857-0.975238-9.923047l0.487619 5.436952a416.816762 416.816762 0 0 1-0.487619-76.483048l-0.24381 2.901334c0.24381-3.291429 0.560762-6.582857 0.877714-9.849905l-0.633904 6.948571a416.231619 416.231619 0 0 1 8.118857-53.735619 411.306667 411.306667 0 0 1 22.479238-70.997333l-0.731429 1.828571a411.964952 411.964952 0 0 1 23.990857-48.664381l4.924953-8.313904a416.231619 416.231619 0 0 1 43.568762-59.001905l0.316952-0.390095 5.802667-6.412191a417.03619 417.03619 0 0 1 18.041904-18.334476l-2.486857 2.364952a417.060571 417.060571 0 0 1 15.116191-13.970285l-2.438095 2.169904 4.486095-3.974095-2.048 1.804191c2.755048-2.438095 5.534476-4.803048 8.338286-7.168l-6.290286 5.363809c2.438095-2.096762 4.87619-4.193524 7.363047-6.241524l6.826667-5.534476c2.852571-2.267429 5.729524-4.510476 8.655238-6.704762l-4.681143 3.584a416.256 416.256 0 0 1 39.765334-27.282285l-7.338667 4.559238a414.549333 414.549333 0 0 1 27.184762-15.798857l-0.926476 0.487619 7.460571-3.876572-6.534095 3.413334c3.388952-1.80419 6.826667-3.559619 10.24-5.266286l-3.705905 1.852952c3.730286-1.901714 7.484952-3.730286 11.264-5.510095l-7.558095 3.657143c3.34019-1.657905 6.680381-3.267048 10.044952-4.803048l-2.486857 1.145905c2.852571-1.340952 5.729524-2.657524 8.630857-3.925333l-6.144 2.779428c2.901333-1.340952 5.802667-2.657524 8.752762-3.925333l8.777143-3.705905c3.242667-1.316571 6.509714-2.584381 9.776762-3.827809l-8.94781 3.486476A411.550476 411.550476 0 0 1 512 97.52381z m-163.352381 592.213333l-3.974095 1.560381a438.02819 438.02819 0 0 0-87.113143 48.225524 340.992 340.992 0 0 0 183.198476 106.374095A512.073143 512.073143 0 0 1 348.647619 689.737143z m326.729143-0.024381l-0.365714 0.950857a511.658667 511.658667 0 0 1-91.794286 155.233524 340.992 340.992 0 0 0 183.222857-106.349714 437.052952 437.052952 0 0 0-91.062857-49.834667zM512 658.285714c-32.01219 0-63.21981 3.413333-93.281524 9.923048A438.808381 438.808381 0 0 0 512 815.542857a439.198476 439.198476 0 0 0 93.281524-147.309714A439.466667 439.466667 0 0 0 512 658.285714zM214.869333 343.868952l-3.413333 6.217143A339.821714 339.821714 0 0 0 170.666667 512c0 61.123048 16.091429 118.491429 44.202666 168.131048a510.317714 510.317714 0 0 1 113.322667-61.001143A512.585143 512.585143 0 0 1 316.952381 512c0-36.742095 3.876571-72.606476 11.215238-107.154286a509.561905 509.561905 0 0 1-113.298286-60.976762z m594.261334 0l-5.12 3.608381a510.659048 510.659048 0 0 1-108.202667 57.392762C703.146667 439.393524 707.047619 475.257905 707.047619 512c0 36.742095-3.876571 72.606476-11.215238 107.154286a509.561905 509.561905 0 0 1 113.298286 60.976762A339.846095 339.846095 0 0 0 853.333333 512c0-61.123048-16.091429-118.491429-44.202666-168.131048z m-183.588572 82.334477l-5.315047 1.194666c-34.864762 7.509333-71.094857 11.459048-108.227048 11.459048-39.009524 0-77.019429-4.36419-113.542095-12.629333A441.636571 441.636571 0 0 0 390.095238 512c0 29.354667 2.876952 58.026667 8.387048 85.796571A512.902095 512.902095 0 0 1 512 585.142857c39.009524 0 77.019429 4.36419 113.542095 12.629333 5.485714-27.721143 8.362667-56.417524 8.362667-85.77219 0-29.354667-2.876952-58.026667-8.387048-85.796571zM512 208.457143l-3.779048 3.998476a438.979048 438.979048 0 0 0-89.478095 143.311238c30.037333 6.509714 61.244952 9.947429 93.257143 9.947429 32.01219 0 63.21981-3.413333 93.281524-9.923048A438.808381 438.808381 0 0 0 512 208.457143z m-71.192381-30.354286l-2.998857 0.658286a341.065143 341.065143 0 0 0-180.248381 105.691428 437.052952 437.052952 0 0 0 91.062857 49.834667 511.902476 511.902476 0 0 1 92.16-156.184381z m142.433524 0l3.413333 4.022857a511.512381 511.512381 0 0 1 88.697905 152.137143 436.394667 436.394667 0 0 0 91.087238-49.785905 340.992 340.992 0 0 0-183.198476-106.374095z" p-id="1968"></path></svg>