<svg t="1694360921613" class="icon" viewBox="0 0 1024 1024" version="1.1" xmlns="http://www.w3.org/2000/svg" p-id="1606" width="200" height="200"><path d="M414.47619 121.904762a73.142857 73.142857 0 0 1 73.142858 73.142857v219.428571a73.142857 73.142857 0 0 1-73.142858 73.142858H195.047619a73.142857 73.142857 0 0 1-73.142857-73.142858V195.047619a73.142857 73.142857 0 0 1 73.142857-73.142857h219.428571zM195.047619 195.047619v219.428571h219.428571V195.047619H195.047619z m219.428571 341.333333a73.142857 73.142857 0 0 1 73.142858 73.142858v219.428571a73.142857 73.142857 0 0 1-73.142858 73.142857H195.047619a73.142857 73.142857 0 0 1-73.142857-73.142857v-219.428571a73.142857 73.142857 0 0 1 73.142857-73.142858h219.428571z m-219.428571 73.142858v219.428571h219.428571v-219.428571H195.047619zM536.380952 182.857143v73.142857h353.52381v-73.142857H536.380952zM536.380952 609.52381v73.142857h353.52381v-73.142857H536.380952z m0-268.190477v73.142857h353.52381v-73.142857H536.380952z m0 426.666667v73.142857h353.52381v-73.142857H536.380952z" p-id="1607"></path></svg>