<svg t="1694360678854" class="icon" viewBox="0 0 1024 1024" version="1.1" xmlns="http://www.w3.org/2000/svg" p-id="1576" width="200" height="200"><path d="M780.190476 146.285714a73.142857 73.142857 0 0 1 73.142857 73.142857v508.099048L678.4 926.47619H268.190476a73.142857 73.142857 0 0 1-73.142857-73.142857V219.428571a73.142857 73.142857 0 0 1 73.142857-73.142857v707.047619h304.737524l0.024381-207.238095H780.190476V146.285714z m-16.969143 572.952381H646.095238l-0.024381 133.241905 117.150476-133.241905zM560.761905 512v73.142857h-219.428572v-73.142857h219.428572z m121.904762-146.285714v73.142857H341.333333v-73.142857h341.333334z m48.761904-268.190476v121.904761h-73.142857V97.52381h73.142857zM387.218286 97.52381v121.904761h-73.142857V97.52381h73.142857zM609.52381 135.68v73.142857h-170.666667v-73.142857h170.666667z" p-id="1577"></path></svg>