<svg t="1694361874464" class="icon" viewBox="0 0 1024 1024" version="1.1" xmlns="http://www.w3.org/2000/svg" p-id="2188" width="200" height="200"><path d="M756.053333 609.52381c29.988571 0 57.709714 16.091429 72.582096 42.130285l49.761523 87.064381a83.602286 83.602286 0 0 1 0 82.944l-49.737142 87.064381A83.602286 83.602286 0 0 1 756.053333 950.857143h-98.011428c-29.988571 0-57.709714-16.091429-72.582095-42.130286l-49.761524-87.064381a83.602286 83.602286 0 0 1 0-82.944l49.737143-87.064381A83.602286 83.602286 0 0 1 658.041905 609.52381h98.011428zM524.678095 120.003048l269.360762 158.256762a73.142857 73.142857 0 0 1 0 126.147047l-37.936762 22.25981 37.936762 22.259809a73.142857 73.142857 0 0 1 8.533333 120.295619A131.754667 131.754667 0 0 0 756.053333 560.761905h-82.066285l82.992762-48.761905-73.069715-42.934857-159.232 93.598476a73.142857 73.142857 0 0 1-74.118095 0l-159.280762-93.622857L218.258286 512 487.619048 670.256762l46.738285-27.501714-40.984381 71.777523c-5.217524 9.118476-9.264762 18.70019-12.141714 28.550096a72.630857 72.630857 0 0 1-30.671238-9.752381l-159.280762-93.622857L218.258286 682.666667 487.619048 840.923429l2.364952-1.365334c1.072762 2.121143 2.194286 4.217905 3.388952 6.290286l32.719238 57.295238-1.414095 0.853333a73.142857 73.142857 0 0 1-74.118095 0L181.199238 745.74019a73.142857 73.142857 0 0 1 0-126.147047l37.888-22.284191-37.888-22.235428a73.142857 73.142857 0 0 1 0-126.147048l37.888-22.259809-37.888-22.25981a73.142857 73.142857 0 0 1 0-126.147047l269.360762-158.232381a73.142857 73.142857 0 0 1 74.118095 0zM756.053333 682.666667h-98.011428a10.459429 10.459429 0 0 0-9.069715 5.266285l-49.761523 87.064381a10.459429 10.459429 0 0 0 0 10.386286l49.737143 87.064381a10.459429 10.459429 0 0 0 9.094095 5.266286h98.011428a10.459429 10.459429 0 0 0 9.069715-5.266286l49.761523-87.064381 0.877715-2.023619a10.459429 10.459429 0 0 0-0.877715-8.362667l-49.737142-87.064381A10.459429 10.459429 0 0 0 756.053333 682.666667zM707.047619 731.428571a48.761905 48.761905 0 1 1 0 97.52381 48.761905 48.761905 0 0 1 0-97.52381zM487.619048 183.076571L218.258286 341.333333 487.619048 499.590095 756.97981 341.333333 487.619048 183.076571z" p-id="2189"></path></svg>