<svg t="1694360486192" class="icon" viewBox="0 0 1024 1024" version="1.1" xmlns="http://www.w3.org/2000/svg" p-id="9000" width="200" height="200"><path d="M632.246857 121.904762c130.56 0 236.422095 105.837714 236.422095 236.422095 0 82.895238-42.666667 155.794286-107.203047 198.022095l192.853333 225.01181A73.142857 73.142857 0 0 1 898.779429 902.095238l-116.443429 0.024381c12.824381-22.186667 16.335238-48.566857 9.99619-73.142857L898.779429 828.952381 651.702857 540.696381l69.705143-45.568a163.279238 163.279238 0 0 0-86.381714-300.056381 287.158857 287.158857 0 0 0-63.341715-65.340952A236.544 236.544 0 0 1 632.246857 121.904762z m-69.90019 471.722667l160.914285 187.733333A73.142857 73.142857 0 0 1 667.672381 902.095238H134.656a73.142857 73.142857 0 0 1-55.53981-120.734476l160.914286-187.733333c20.601905 14.140952 43.154286 25.648762 67.169524 34.035809L134.656 828.952381h533.040762l-172.568381-201.289143c24.039619-8.387048 46.592-19.870476 67.218286-34.035809zM401.188571 121.904762c130.56 0 236.422095 105.837714 236.422096 236.422095 0 130.56-105.862095 236.422095-236.422096 236.422095-130.584381 0-236.422095-105.862095-236.422095-236.422095C164.766476 227.742476 270.60419 121.904762 401.188571 121.904762z m0 73.142857a163.279238 163.279238 0 1 0 0 326.558476 163.279238 163.279238 0 0 0 0-326.558476z" p-id="9001"></path></svg>