<svg t="1694249221412" class="icon" viewBox="0 0 1024 1024" version="1.1" xmlns="http://www.w3.org/2000/svg" p-id="2060" width="200" height="200"><path d="M0 0h1024v1024H0z" opacity=".01" p-id="2061"></path><path d="M512 170.666667a341.105778 341.105778 0 0 1 291.498667 163.669333 28.444444 28.444444 0 1 1-48.526223 29.696 284.444444 284.444444 0 1 0 28.444445 233.585778 28.444444 28.444444 0 1 1 54.215111 17.066666A341.447111 341.447111 0 0 1 170.666667 512a341.333333 341.333333 0 0 1 341.333333-341.333333z" p-id="2062"></path><path d="M654.222222 426.666667a28.444444 28.444444 0 0 1 0-56.888889H796.444444V227.555556a28.444444 28.444444 0 1 1 56.888889 0v170.666666a28.444444 28.444444 0 0 1-23.324444 27.989334l-5.12 0.455111h-170.666667z" p-id="2063"></path></svg>