<svg t="1694090391635" class="icon" viewBox="0 0 1024 1024" version="1.1" xmlns="http://www.w3.org/2000/svg" p-id="1124" width="200" height="200"><path d="M465.334857 146.285714c176.201143 0 319.024762 145.091048 319.024762 324.096a325.973333 325.973333 0 0 1-65.560381 196.827429L877.714286 828.611048 829.366857 877.714286l-157.647238-160.182857a314.855619 314.855619 0 0 1-206.384762 76.921904C289.133714 794.453333 146.285714 649.386667 146.285714 470.381714S289.133714 146.285714 465.334857 146.285714z m0 69.436953c-138.459429 0-250.684952 114.029714-250.684952 254.659047 0 140.629333 112.225524 254.634667 250.684952 254.634667 138.435048 0 250.660571-114.005333 250.660572-254.634667 0-140.629333-112.225524-254.659048-250.660572-254.659047z" p-id="1125"></path></svg>