<svg t="1694361587935" class="icon" viewBox="0 0 1024 1024" version="1.1" xmlns="http://www.w3.org/2000/svg" p-id="2034" width="200" height="200"><path d="M750.933333 563.2a117.028571 117.028571 0 0 1 101.132191 175.957333l70.217143 70.217143-41.374477 41.374476-70.022095-69.997714A117.028571 117.028571 0 1 1 750.933333 563.2zM853.333333 185.295238a73.142857 73.142857 0 0 1 73.142857 73.142857v256h-73.142857v-60.952381H170.666667v121.904762h414.47619v73.142857H170.666667v121.904762h414.47619v73.142857H170.666667a73.142857 73.142857 0 0 1-73.142857-73.142857v-512a73.142857 73.142857 0 0 1 73.142857-73.142857h682.666666zM256 685.104762v48.761905h-48.761905v-48.761905h48.761905z m97.52381 0v48.761905h-48.761905v-48.761905h48.761905z m397.409523-48.761905a43.885714 43.885714 0 1 0 0 87.771429 43.885714 43.885714 0 0 0 0-87.771429z m-494.933333-146.285714v48.761905h-48.761905v-48.761905h48.761905z m97.52381 0v48.761905h-48.761905v-48.761905h48.761905zM853.333333 258.438095H170.666667v121.904762h682.666666v-121.904762z m-597.333333 36.571429v48.761905h-48.761905v-48.761905h48.761905z m97.52381 0v48.761905h-48.761905v-48.761905h48.761905z" p-id="2035"></path></svg>