<svg t="1694357983143" class="icon" viewBox="0 0 1024 1024" version="1.1" xmlns="http://www.w3.org/2000/svg" p-id="1516" width="200" height="200"><path d="M362.837333 697.002667a103.302095 103.302095 0 0 1 97.401905 68.851809H902.095238v73.142857H458.605714a103.302095 103.302095 0 0 1-191.512381 0H121.904762v-73.142857h143.555048a103.302095 103.302095 0 0 1 97.377523-68.851809z m0 73.142857a30.110476 30.110476 0 1 0 0 60.220952 30.110476 30.110476 0 0 0 0-60.220952z m298.325334-348.501334a103.302095 103.302095 0 0 1 97.377523 68.85181H902.095238v73.142857h-145.188571a103.302095 103.302095 0 0 1-191.512381 0H121.904762v-73.142857h441.856a103.302095 103.302095 0 0 1 97.401905-68.85181z m0 73.142858a30.110476 30.110476 0 1 0 0 60.220952 30.110476 30.110476 0 0 0 0-60.220952zM362.837333 146.285714a103.302095 103.302095 0 0 1 97.401905 68.827429H902.095238v73.142857H458.605714a103.302095 103.302095 0 0 1-191.512381 0H121.904762v-73.142857h143.555048A103.302095 103.302095 0 0 1 362.837333 146.285714z m0 73.142857a30.110476 30.110476 0 1 0 0 60.220953 30.110476 30.110476 0 0 0 0-60.220953z" p-id="1517"></path></svg>