<svg t="1693903664799" class="icon" viewBox="0 0 1024 1024" version="1.1" xmlns="http://www.w3.org/2000/svg" p-id="914" width="200" height="200"><path d="M290.907021 294.935266c0-13.697977-4.168949-24.714891-12.506848-33.05279s-19.354813-12.506848-33.05279-12.506848c-14.292518 0-26.799366 4.466732-37.519522 13.400195-10.720156 8.933463-16.376992 19.652596-16.972557 32.159444 0 13.101389 5.65786 23.821545 16.972557 32.159444 11.31572 8.336876 23.821545 12.505825 37.519522 12.505825 13.697977 0 24.714891-3.870144 33.05279-11.612479C286.738072 320.244698 290.907021 309.228807 290.907021 294.935266zM660.736021 547.741016c0-8.93244-4.168949-17.270339-12.506848-25.01165-8.337899-7.740288-19.058055-11.316743-32.160467-10.721179-9.529027 0-17.865903 3.871167-25.01165 11.615549-7.144724 7.740288-11.017938 15.781428-11.613502 24.11728 0 9.530051 3.870144 17.86795 11.613502 25.012673 7.741311 7.145747 16.07921 11.018961 25.01165 11.613502 13.102413 0 23.820522-3.572362 32.160467-10.720156C656.567072 566.501288 660.736021 557.864584 660.736021 547.741016zM543.712771 294.935266c0-13.697977-4.167926-24.714891-12.505825-33.05279-8.337899-8.336876-19.355837-12.506848-33.05279-12.506848-14.293541 0-26.799366 4.466732-37.519522 13.400195-10.721179 8.933463-16.07921 19.652596-16.07921 32.159444 0 13.101389 5.358031 23.821545 16.07921 32.159444 10.720156 8.337899 23.225981 12.505825 37.519522 12.505825 13.696953 0 24.713868-3.870144 33.05279-11.612479C539.543821 320.244698 543.712771 309.228807 543.712771 294.935266zM859.944062 547.741016c0-8.93244-4.466732-17.270339-13.400195-25.01165-8.933463-7.740288-19.653619-11.316743-32.159444-10.721179-8.933463 0-16.974603 3.871167-24.119327 11.615549-7.145747 7.740288-11.018961 15.781428-11.614525 24.11728 0 9.530051 3.871167 17.86795 11.614525 25.012673 7.742335 7.145747 15.782451 11.018961 24.119327 11.613502 13.101389 0 23.819498-3.572362 32.159444-10.720156C854.881766 566.501288 859.347474 557.864584 859.944062 547.741016zM726.840578 350.319667c-10.124592-1.785669-21.73707-2.679016-34.839483-2.679016-55.979966 0-107.494223 12.803607-154.540725 38.411845-47.048549 25.607214-84.270289 60.446697-111.663172 104.517425-27.39493 44.068681-40.794102 91.713818-40.199561 142.930293 0 26.201755 3.871167 51.514257 11.612479 75.931367-11.910261 1.191128-23.224957 1.784646-33.945113 1.784646-8.93244 0-17.270339-0.297782-25.01165-0.893346-7.741311-0.594541-16.972557-1.784646-27.693736-3.571339-10.720156-1.786693-18.163685-2.977821-22.332634-3.573385-4.168949-0.594541-13.101389-2.382257-26.799366-5.360078-13.696953-2.976798-22.034852-4.465708-25.012673-4.465708l-125.95569 62.531172 35.731806-108.089787C49.71375 579.900459 1.475096 498.312256 1.475096 403.026076c0-55.980989 16.07921-107.494223 48.238654-154.541749 32.159444-47.047526 76.229149-84.269265 132.210138-111.663172 55.979966-27.39493 116.427686-40.794102 181.341115-40.198537 58.362222 0 113.449865 10.720156 165.262928 32.159444 51.811016 21.439288 95.285157 51.812039 130.422422 91.117231C694.087617 259.204483 716.71701 302.676577 726.840578 350.319667L726.840578 350.319667zM1022.524904 629.925806c0 38.709627-11.31572 75.632561-33.946137 110.769826-22.629393 35.136242-53.597709 67.295686-92.9029 96.476285l27.693736 90.223884-99.157347-53.597709c-50.025347 11.911284-86.352717 17.865903-108.983133 17.865903-55.979966 0-107.494223-11.614525-154.540725-34.840506-47.049572-23.223934-84.270289-55.085596-111.664196-95.582939-27.39493-40.495296-41.092907-84.270289-41.092907-131.314745 0-47.050596 13.696953-91.118254 41.092907-132.210138 27.39493-41.091884 64.615647-72.655763 111.664196-94.690616 47.047526-22.034852 98.559736-33.945113 154.540725-35.731806 53.598732 0 103.923908 11.911284 150.969387 35.731806 47.047526 23.821545 84.863806 55.683207 113.449865 95.583962C1008.23341 538.50977 1022.524904 582.282716 1022.524904 629.925806z" p-id="915"></path></svg>