<svg t="1694401133319" class="icon" viewBox="0 0 1024 1024" version="1.1" xmlns="http://www.w3.org/2000/svg" p-id="2121" width="200" height="200"><path d="M512 97.52381c228.985905 0 414.47619 185.490286 414.47619 414.47619s-185.490286 414.47619-414.47619 414.47619S97.52381 740.985905 97.52381 512 283.014095 97.52381 512 97.52381z m0 73.142857C347.550476 170.666667 210.383238 286.793143 177.93219 441.539048h39.692191c9.825524 0.146286 18.919619 0.975238 34.450286 2.998857l34.791619 4.656762c8.899048 1.097143 15.555048 1.706667 21.26019 1.877333l5.436953 0.073143c4.242286-0.048762 7.41181-0.390095 9.386666-0.853333l-0.316952 0.02438 1.755428-1.633523c33.426286-29.379048 94.47619-28.038095 137.191619-4.608l4.827429 2.803809c15.896381 9.703619 25.136762 21.138286 40.740571 45.202286l4.924953 7.582476c11.580952 17.554286 16.335238 22.137905 17.773714 22.137905 58.977524 0 116.248381 41.71581 116.248381 97.060571 0 27.40419-18.115048 43.349333-42.398476 49.883429-6.875429 1.852952-12.995048 2.925714-21.723429 3.754667l-9.752381 0.78019-24.868571 1.584762-7.070476 0.658286-5.632 0.731428c-2.462476 73.069714-26.819048 131.754667-87.28381 131.754667-14.043429 0-24.380952-1.389714-40.350476-4.632381l-12.117333-2.29181c-12.117333-1.877333-20.504381-0.926476-35.84 4.681143l-7.484953 2.56c-1.974857 0.633905-3.974095 1.219048-5.973333 1.804191A339.797333 339.797333 0 0 0 512 853.333333c188.611048 0 341.333333-152.722286 341.333333-341.333333 0-21.991619-2.072381-43.471238-6.046476-64.316952-3.974095 1.657905-8.045714 2.950095-12.190476 3.900952-1.170286 4.291048-2.511238 10.020571-4.144762 17.724952l-4.096 19.382858-3.510857 15.238095c-13.604571 54.51581-32.743619 83.480381-78.238476 83.480381-54.808381 0-78.531048-37.741714-81.188572-90.819048a235.129905 235.129905 0 0 1-0.26819-9.947428l0.097524-10.72762 0.463238-12.897523c-4.510476-2.511238-14.531048-7.996952-21.942857-12.214857l-6.217143-3.657143c-39.984762-24.746667-63.097905-58.221714-63.097905-109.324191 0-53.589333 28.379429-98.742857 81.993143-135.875047A340.016762 340.016762 0 0 0 512 170.666667z m-83.651048 338.651428c-18.383238-11.215238-49.639619-11.946667-55.515428-5.851428-20.114286 20.894476-40.862476 24.283429-85.162667 19.480381l-12.678095-1.511619-35.791238-4.803048a246.247619 246.247619 0 0 0-18.870857-1.828571l-5.680762-0.121905-43.958857-0.024381 0.048762 4.973714a339.992381 339.992381 0 0 0 84.358095 217.185524c29.159619 9.069714 55.02781 8.996571 78.799238 0.26819 30.086095-11.02019 51.833905-12.239238 78.726095-7.168l13.55581 2.681905c8.728381 1.657905 14.214095 2.267429 21.211428 2.267429 3.120762 0 14.311619-31.158857 14.311619-71.314286 0-27.696762 17.261714-46.32381 42.105905-54.857143 13.092571-4.486095 25.86819-6.119619 47.908571-7.43619l3.657143-0.24381c-7.289905-3.559619-16.213333-6.095238-25.526857-6.095238-36.766476 0-54.491429-17.334857-81.578667-59.196952l-6.851047-10.435048c-6.680381-9.898667-10.532571-14.384762-13.068191-15.945143z m296.374858-264.338285l-1.024 0.560761c-53.394286 28.452571-77.604571 59.440762-77.604572 92.281905 0 22.698667 8.216381 34.596571 28.452572 47.104l1.219047 0.731429 28.745143 16.188952c20.626286 12.604952 33.158095 26.819048 33.158095 50.444191l-0.048762 2.852571-0.804571 25.6v6.412191l0.170667 5.802666c0.75581 15.311238 1.755429 19.748571 5.12 20.918857l0.438857 0.121905 0.048762-0.243809a4.144762 4.144762 0 0 1 0.243809-0.658286l0.487619-0.975238 1.316572-2.511238c3.413333-7.168 6.656-17.92 10.118095-33.596953l5.851428-27.550476c3.169524-14.409143 5.778286-23.698286 9.45981-32.499809 8.777143-20.796952 23.064381-35.498667 47.152762-35.498667 1.584762 0 3.925333-0.877714 7.68-3.681524a40.228571 40.228571 0 0 0 0.438857-0.341333 341.918476 341.918476 0 0 0-100.62019-131.462095z" p-id="2122"></path></svg>

